<?xml version="1.0" encoding="utf-8"?>
<!-- Generator: Adobe Illustrator 28.0.0, SVG Export Plug-In . SVG Version: 6.00 Build 0)  -->
<svg version="1.1" id="Layer_1" xmlns="http://www.w3.org/2000/svg" xmlns:xlink="http://www.w3.org/1999/xlink" x="0px" y="0px"
	 viewBox="0 0 200.79 46.88" style="enable-background:new 0 0 200.79 46.88;" xml:space="preserve">
<style type="text/css">
	.st0{enable-background:new    ;}
	.st1{fill:#010202;}
</style>
<g class="st0">
	<path class="st1" d="M43.38,33.36V11.54h8.35c1.58,0,2.89,0.25,3.94,0.74c1.05,0.49,1.83,1.17,2.35,2.02
		c0.52,0.85,0.78,1.82,0.78,2.9c0,0.89-0.17,1.65-0.51,2.27s-0.8,1.14-1.37,1.53c-0.58,0.39-1.22,0.67-1.93,0.84v0.21
		c0.77,0.04,1.52,0.28,2.23,0.71s1.3,1.04,1.75,1.82s0.68,1.73,0.68,2.83c0,1.13-0.27,2.14-0.82,3.04s-1.37,1.61-2.47,2.13
		c-1.1,0.52-2.49,0.78-4.15,0.78H43.38z M47.34,20.82h3.91c0.68,0,1.3-0.13,1.84-0.38c0.55-0.25,0.98-0.61,1.29-1.08
		c0.32-0.46,0.47-1.02,0.47-1.66c0-0.85-0.3-1.54-0.89-2.09c-0.59-0.55-1.47-0.82-2.64-0.82h-4V20.82z M47.34,30.06h4.25
		c1.43,0,2.47-0.28,3.11-0.83c0.64-0.55,0.95-1.26,0.95-2.13c0-0.65-0.16-1.23-0.48-1.75c-0.32-0.52-0.77-0.93-1.36-1.24
		c-0.59-0.3-1.29-0.45-2.11-0.45h-4.36V30.06z"/>
	<path class="st1" d="M66.79,11.54v21.82h-3.86V11.54H66.79z"/>
	<path class="st1" d="M77.89,33.68c-1.6,0-2.98-0.35-4.15-1.05s-2.08-1.69-2.72-2.95c-0.64-1.26-0.96-2.74-0.96-4.43
		s0.32-3.17,0.96-4.44c0.64-1.27,1.55-2.26,2.72-2.96s2.56-1.05,4.15-1.05c1.6,0,2.98,0.35,4.15,1.05s2.08,1.69,2.72,2.96
		c0.64,1.27,0.96,2.75,0.96,4.44s-0.32,3.17-0.96,4.43c-0.64,1.26-1.55,2.25-2.72,2.95S79.49,33.68,77.89,33.68z M77.91,30.59
		c0.87,0,1.59-0.24,2.17-0.72c0.58-0.48,1.02-1.12,1.31-1.93s0.43-1.71,0.43-2.71c0-1-0.14-1.91-0.43-2.72s-0.72-1.46-1.31-1.94
		c-0.58-0.48-1.31-0.72-2.17-0.72c-0.89,0-1.62,0.24-2.21,0.72c-0.59,0.48-1.02,1.13-1.31,1.94s-0.43,1.72-0.43,2.72
		c0,1,0.14,1.9,0.43,2.71s0.72,1.45,1.31,1.93S77.02,30.59,77.91,30.59z"/>
	<path class="st1" d="M96.11,39.84c-1.39,0-2.57-0.19-3.57-0.56c-0.99-0.37-1.79-0.87-2.4-1.5c-0.6-0.62-1.02-1.32-1.26-2.08
		l3.47-0.84c0.16,0.32,0.38,0.64,0.68,0.95c0.3,0.32,0.7,0.58,1.21,0.79c0.51,0.21,1.15,0.31,1.92,0.31c1.09,0,2-0.26,2.72-0.79
		s1.08-1.4,1.08-2.6v-3.1h-0.19c-0.2,0.4-0.49,0.81-0.87,1.23s-0.88,0.77-1.5,1.05c-0.62,0.28-1.4,0.43-2.34,0.43
		c-1.26,0-2.4-0.3-3.41-0.89c-1.02-0.59-1.83-1.48-2.43-2.66s-0.9-2.67-0.9-4.45c0-1.8,0.3-3.31,0.9-4.55s1.41-2.18,2.43-2.82
		c1.02-0.64,2.16-0.96,3.42-0.96c0.96,0,1.75,0.16,2.37,0.49s1.12,0.71,1.49,1.16c0.37,0.45,0.65,0.88,0.84,1.27h0.21V17h3.8v16.63
		c0,1.4-0.33,2.56-1,3.47c-0.67,0.92-1.58,1.6-2.74,2.06C98.89,39.61,97.58,39.84,96.11,39.84z M96.14,30.1
		c0.82,0,1.51-0.2,2.09-0.6c0.58-0.4,1.01-0.97,1.31-1.71c0.3-0.75,0.45-1.64,0.45-2.69c0-1.03-0.15-1.93-0.44-2.71
		c-0.29-0.77-0.73-1.38-1.3-1.81c-0.57-0.43-1.27-0.64-2.1-0.64c-0.86,0-1.58,0.22-2.15,0.67s-1.01,1.06-1.3,1.84
		c-0.29,0.78-0.44,1.66-0.44,2.65c0,1,0.15,1.88,0.44,2.63c0.29,0.75,0.73,1.33,1.31,1.75C94.58,29.89,95.29,30.1,96.14,30.1z"/>
	<path class="st1" d="M114.87,39.84c-1.39,0-2.57-0.19-3.57-0.56c-0.99-0.37-1.79-0.87-2.4-1.5c-0.6-0.62-1.02-1.32-1.26-2.08
		l3.47-0.84c0.16,0.32,0.38,0.64,0.68,0.95c0.3,0.32,0.7,0.58,1.21,0.79c0.51,0.21,1.15,0.31,1.92,0.31c1.09,0,2-0.26,2.72-0.79
		s1.08-1.4,1.08-2.6v-3.1h-0.19c-0.2,0.4-0.49,0.81-0.87,1.23s-0.88,0.77-1.5,1.05c-0.62,0.28-1.4,0.43-2.34,0.43
		c-1.26,0-2.4-0.3-3.41-0.89c-1.02-0.59-1.83-1.48-2.43-2.66s-0.9-2.67-0.9-4.45c0-1.8,0.3-3.31,0.9-4.55s1.41-2.18,2.43-2.82
		c1.02-0.64,2.16-0.96,3.42-0.96c0.96,0,1.75,0.16,2.37,0.49s1.12,0.71,1.49,1.16c0.37,0.45,0.65,0.88,0.84,1.27h0.21V17h3.8v16.63
		c0,1.4-0.33,2.56-1,3.47c-0.67,0.92-1.58,1.6-2.74,2.06C117.65,39.61,116.34,39.84,114.87,39.84z M114.9,30.1
		c0.82,0,1.51-0.2,2.09-0.6c0.58-0.4,1.01-0.97,1.31-1.71c0.3-0.75,0.45-1.64,0.45-2.69c0-1.03-0.15-1.93-0.44-2.71
		c-0.29-0.77-0.73-1.38-1.3-1.81c-0.57-0.43-1.27-0.64-2.1-0.64c-0.86,0-1.58,0.22-2.15,0.67s-1.01,1.06-1.3,1.84
		c-0.29,0.78-0.44,1.66-0.44,2.65c0,1,0.15,1.88,0.44,2.63c0.29,0.75,0.73,1.33,1.31,1.75C113.34,29.89,114.05,30.1,114.9,30.1z"/>
	<path class="st1" d="M130.37,11.54v21.82h-3.86V11.54H130.37z"/>
	<path class="st1" d="M141.47,33.68c-1.6,0-2.98-0.35-4.15-1.05s-2.08-1.69-2.72-2.95c-0.64-1.26-0.96-2.74-0.96-4.43
		s0.32-3.17,0.96-4.44c0.64-1.27,1.55-2.26,2.72-2.96s2.56-1.05,4.15-1.05c1.6,0,2.98,0.35,4.15,1.05s2.08,1.69,2.72,2.96
		c0.64,1.27,0.96,2.75,0.96,4.44s-0.32,3.17-0.96,4.43c-0.64,1.26-1.55,2.25-2.72,2.95S143.07,33.68,141.47,33.68z M141.49,30.59
		c0.87,0,1.59-0.24,2.17-0.72c0.58-0.48,1.02-1.12,1.31-1.93s0.43-1.71,0.43-2.71c0-1-0.14-1.91-0.43-2.72s-0.72-1.46-1.31-1.94
		c-0.58-0.48-1.31-0.72-2.17-0.72c-0.89,0-1.62,0.24-2.21,0.72c-0.59,0.48-1.02,1.13-1.31,1.94s-0.43,1.72-0.43,2.72
		c0,1,0.14,1.9,0.43,2.71s0.72,1.45,1.31,1.93S140.6,30.59,141.49,30.59z"/>
	<path class="st1" d="M159.69,39.84c-1.39,0-2.57-0.19-3.57-0.56c-0.99-0.37-1.79-0.87-2.4-1.5c-0.6-0.62-1.02-1.32-1.26-2.08
		l3.47-0.84c0.16,0.32,0.38,0.64,0.68,0.95c0.3,0.32,0.7,0.58,1.21,0.79c0.51,0.21,1.15,0.31,1.92,0.31c1.09,0,2-0.26,2.72-0.79
		s1.08-1.4,1.08-2.6v-3.1h-0.19c-0.2,0.4-0.49,0.81-0.87,1.23s-0.88,0.77-1.5,1.05c-0.62,0.28-1.4,0.43-2.34,0.43
		c-1.26,0-2.4-0.3-3.41-0.89c-1.02-0.59-1.83-1.48-2.43-2.66s-0.9-2.67-0.9-4.45c0-1.8,0.3-3.31,0.9-4.55s1.41-2.18,2.43-2.82
		c1.02-0.64,2.16-0.96,3.42-0.96c0.96,0,1.75,0.16,2.37,0.49s1.12,0.71,1.49,1.16c0.37,0.45,0.65,0.88,0.84,1.27h0.21V17h3.8v16.63
		c0,1.4-0.33,2.56-1,3.47c-0.67,0.92-1.58,1.6-2.74,2.06C162.47,39.61,161.16,39.84,159.69,39.84z M159.72,30.1
		c0.82,0,1.51-0.2,2.09-0.6c0.58-0.4,1.01-0.97,1.31-1.71c0.3-0.75,0.45-1.64,0.45-2.69c0-1.03-0.15-1.93-0.44-2.71
		c-0.29-0.77-0.73-1.38-1.3-1.81c-0.57-0.43-1.27-0.64-2.1-0.64c-0.86,0-1.58,0.22-2.15,0.67s-1.01,1.06-1.3,1.84
		c-0.29,0.78-0.44,1.66-0.44,2.65c0,1,0.15,1.88,0.44,2.63c0.29,0.75,0.73,1.33,1.31,1.75C158.16,29.89,158.87,30.1,159.72,30.1z"/>
	<path class="st1" d="M178.47,33.68c-1.6,0-2.98-0.35-4.15-1.05s-2.08-1.69-2.72-2.95c-0.64-1.26-0.96-2.74-0.96-4.43
		s0.32-3.17,0.96-4.44c0.64-1.27,1.55-2.26,2.72-2.96s2.56-1.05,4.15-1.05c1.6,0,2.98,0.35,4.15,1.05s2.08,1.69,2.72,2.96
		c0.64,1.27,0.96,2.75,0.96,4.44s-0.32,3.17-0.96,4.43c-0.64,1.26-1.55,2.25-2.72,2.95S180.07,33.68,178.47,33.68z M178.49,30.59
		c0.87,0,1.59-0.24,2.17-0.72c0.58-0.48,1.02-1.12,1.31-1.93s0.43-1.71,0.43-2.71c0-1-0.14-1.91-0.43-2.72s-0.72-1.46-1.31-1.94
		c-0.58-0.48-1.31-0.72-2.17-0.72c-0.89,0-1.62,0.24-2.21,0.72c-0.59,0.48-1.02,1.13-1.31,1.94s-0.43,1.72-0.43,2.72
		c0,1,0.14,1.9,0.43,2.71s0.72,1.45,1.31,1.93S177.6,30.59,178.49,30.59z"/>
</g>
<path id="Icon_simple-circle" class="st1" d="M31.31,15.19c-0.09-0.09-0.17-0.19-0.27-0.28s-0.19-0.18-0.28-0.27
	c-4.26-4.02-10.98-3.83-15,0.43c-3.86,4.09-3.86,10.48,0,14.57c0.09,0.1,0.17,0.19,0.26,0.28s0.19,0.18,0.28,0.26
	c4.27,4.01,10.99,3.8,15-0.48C35.13,25.63,35.13,19.28,31.31,15.19L31.31,15.19z M16.58,15.46c3.74-3.74,9.76-3.86,13.64-0.27
	l-0.89,0.89c-3.48-3.22-8.91-3.02-12.13,0.46c-3.05,3.29-3.05,8.38,0,11.67l-0.89,0.89C12.73,25.21,12.85,19.2,16.58,15.46z
	 M28.78,16.63L28.78,16.63l-0.9,0.9c-2.7-2.41-6.83-2.17-9.24,0.53c-2.22,2.48-2.22,6.23,0,8.71l-0.9,0.9
	c-2.94-3.16-2.76-8.1,0.4-11.04C21.13,13.83,25.78,13.83,28.78,16.63L28.78,16.63z M29.31,22.42c0,3.19-2.58,5.78-5.77,5.78
	c-1.4,0-2.76-0.51-3.82-1.43l0,0c-0.1-0.08-0.2-0.17-0.29-0.26c-0.09-0.09-0.18-0.19-0.26-0.29c-2.11-2.39-1.87-6.04,0.52-8.15
	c2.18-1.92,5.44-1.92,7.62,0c0.1,0.08,0.2,0.17,0.29,0.26c0.09,0.09,0.18,0.19,0.26,0.29C28.8,19.67,29.32,21.02,29.31,22.42
	L29.31,22.42z M19.19,27.31L19.19,27.31c2.7,2.41,6.84,2.17,9.24-0.53c2.21-2.48,2.21-6.23,0-8.71l0.9-0.9
	c2.92,3.18,2.71,8.12-0.46,11.04c-2.99,2.75-7.59,2.75-10.58,0L19.19,27.31L19.19,27.31z M30.49,29.38
	c-3.74,3.74-9.76,3.85-13.64,0.27l0.89-0.89c3.5,3.2,8.93,2.95,12.13-0.55c3-3.28,3-8.3,0-11.58l0.89-0.89
	C34.34,19.62,34.22,25.64,30.49,29.38L30.49,29.38z"/>
</svg>
